<mxfile host="app.diagrams.net" modified="2021-08-21T03:42:38.363Z" agent="5.0 (Windows NT 10.0; Win64; x64) AppleWebKit/537.36 (KHTML, like Gecko) Chrome/92.0.4515.159 Safari/537.36" etag="md-XXZ-eDow4JWoHQoFC" version="14.9.8" type="github">
  <diagram id="C5RBs43oDa-KdzZeNtuy" name="Page-1">
    <mxGraphModel dx="2249" dy="762" grid="1" gridSize="10" guides="1" tooltips="1" connect="1" arrows="1" fold="1" page="1" pageScale="1" pageWidth="827" pageHeight="1169" math="0" shadow="0">
      <root>
        <mxCell id="WIyWlLk6GJQsqaUBKTNV-0" />
        <mxCell id="WIyWlLk6GJQsqaUBKTNV-1" parent="WIyWlLk6GJQsqaUBKTNV-0" />
        <mxCell id="WIyWlLk6GJQsqaUBKTNV-2" value="" style="rounded=0;html=1;jettySize=auto;orthogonalLoop=1;fontSize=11;endArrow=block;endFill=0;endSize=8;strokeWidth=1;shadow=0;labelBackgroundColor=none;edgeStyle=orthogonalEdgeStyle;exitX=0.5;exitY=1;exitDx=0;exitDy=0;" parent="WIyWlLk6GJQsqaUBKTNV-1" source="kPMzsbJADHHdvd4n1n2J-37" target="WIyWlLk6GJQsqaUBKTNV-6" edge="1">
          <mxGeometry relative="1" as="geometry" />
        </mxCell>
        <mxCell id="kPMzsbJADHHdvd4n1n2J-38" style="edgeStyle=orthogonalEdgeStyle;rounded=0;orthogonalLoop=1;jettySize=auto;html=1;entryX=0;entryY=0.5;entryDx=0;entryDy=0;" edge="1" parent="WIyWlLk6GJQsqaUBKTNV-1" source="WIyWlLk6GJQsqaUBKTNV-3" target="kPMzsbJADHHdvd4n1n2J-37">
          <mxGeometry relative="1" as="geometry">
            <mxPoint x="300" y="140" as="targetPoint" />
            <Array as="points">
              <mxPoint x="330" y="300" />
              <mxPoint x="330" y="90" />
            </Array>
          </mxGeometry>
        </mxCell>
        <mxCell id="WIyWlLk6GJQsqaUBKTNV-3" value="Greets user and asks for location" style="rounded=1;whiteSpace=wrap;html=1;fontSize=12;glass=0;strokeWidth=1;shadow=0;" parent="WIyWlLk6GJQsqaUBKTNV-1" vertex="1">
          <mxGeometry x="150" y="280" width="120" height="40" as="geometry" />
        </mxCell>
        <mxCell id="WIyWlLk6GJQsqaUBKTNV-6" value="gets zipcode/location from user" style="rhombus;whiteSpace=wrap;html=1;shadow=0;fontFamily=Helvetica;fontSize=12;align=center;strokeWidth=1;spacing=6;spacingTop=-4;" parent="WIyWlLk6GJQsqaUBKTNV-1" vertex="1">
          <mxGeometry x="380" y="236.25" width="140" height="106.25" as="geometry" />
        </mxCell>
        <mxCell id="kPMzsbJADHHdvd4n1n2J-26" style="edgeStyle=orthogonalEdgeStyle;rounded=0;orthogonalLoop=1;jettySize=auto;html=1;exitX=0.5;exitY=1;exitDx=0;exitDy=0;entryX=0.583;entryY=-0.075;entryDx=0;entryDy=0;entryPerimeter=0;" edge="1" parent="WIyWlLk6GJQsqaUBKTNV-1" source="WIyWlLk6GJQsqaUBKTNV-7" target="WIyWlLk6GJQsqaUBKTNV-3">
          <mxGeometry relative="1" as="geometry" />
        </mxCell>
        <mxCell id="WIyWlLk6GJQsqaUBKTNV-7" value="User opens app" style="rounded=1;whiteSpace=wrap;html=1;fontSize=12;glass=0;strokeWidth=1;shadow=0;" parent="WIyWlLk6GJQsqaUBKTNV-1" vertex="1">
          <mxGeometry x="160" y="70" width="120" height="40" as="geometry" />
        </mxCell>
        <mxCell id="kPMzsbJADHHdvd4n1n2J-16" value="" style="endArrow=none;dashed=1;html=1;" edge="1" parent="WIyWlLk6GJQsqaUBKTNV-1">
          <mxGeometry width="50" height="50" relative="1" as="geometry">
            <mxPoint x="-3" y="200" as="sourcePoint" />
            <mxPoint x="1280" y="200" as="targetPoint" />
          </mxGeometry>
        </mxCell>
        <mxCell id="kPMzsbJADHHdvd4n1n2J-17" value="" style="endArrow=none;dashed=1;html=1;" edge="1" parent="WIyWlLk6GJQsqaUBKTNV-1">
          <mxGeometry width="50" height="50" relative="1" as="geometry">
            <mxPoint x="-1" y="360" as="sourcePoint" />
            <mxPoint x="1280" y="360" as="targetPoint" />
          </mxGeometry>
        </mxCell>
        <mxCell id="kPMzsbJADHHdvd4n1n2J-18" value="" style="endArrow=none;dashed=1;html=1;" edge="1" parent="WIyWlLk6GJQsqaUBKTNV-1">
          <mxGeometry width="50" height="50" relative="1" as="geometry">
            <mxPoint x="-1" y="520" as="sourcePoint" />
            <mxPoint x="1280" y="520" as="targetPoint" />
          </mxGeometry>
        </mxCell>
        <mxCell id="kPMzsbJADHHdvd4n1n2J-19" value="" style="endArrow=none;dashed=1;html=1;" edge="1" parent="WIyWlLk6GJQsqaUBKTNV-1">
          <mxGeometry width="50" height="50" relative="1" as="geometry">
            <mxPoint y="680" as="sourcePoint" />
            <mxPoint x="1280" y="680" as="targetPoint" />
          </mxGeometry>
        </mxCell>
        <mxCell id="kPMzsbJADHHdvd4n1n2J-20" value="Actor" style="shape=umlActor;verticalLabelPosition=bottom;verticalAlign=top;html=1;outlineConnect=0;" vertex="1" parent="WIyWlLk6GJQsqaUBKTNV-1">
          <mxGeometry width="30" height="60" as="geometry" />
        </mxCell>
        <mxCell id="kPMzsbJADHHdvd4n1n2J-21" value="User" style="ellipse;whiteSpace=wrap;html=1;" vertex="1" parent="WIyWlLk6GJQsqaUBKTNV-1">
          <mxGeometry x="40" y="10" width="140" height="40" as="geometry" />
        </mxCell>
        <mxCell id="kPMzsbJADHHdvd4n1n2J-22" value="CLI" style="ellipse;whiteSpace=wrap;html=1;" vertex="1" parent="WIyWlLk6GJQsqaUBKTNV-1">
          <mxGeometry y="200" width="140" height="40" as="geometry" />
        </mxCell>
        <mxCell id="kPMzsbJADHHdvd4n1n2J-23" value="Rain class" style="ellipse;whiteSpace=wrap;html=1;" vertex="1" parent="WIyWlLk6GJQsqaUBKTNV-1">
          <mxGeometry y="360" width="140" height="40" as="geometry" />
        </mxCell>
        <mxCell id="kPMzsbJADHHdvd4n1n2J-24" value="Scraper class" style="ellipse;whiteSpace=wrap;html=1;" vertex="1" parent="WIyWlLk6GJQsqaUBKTNV-1">
          <mxGeometry y="520" width="140" height="40" as="geometry" />
        </mxCell>
        <mxCell id="kPMzsbJADHHdvd4n1n2J-33" style="edgeStyle=orthogonalEdgeStyle;rounded=0;orthogonalLoop=1;jettySize=auto;html=1;exitX=1;exitY=0.5;exitDx=0;exitDy=0;entryX=0.547;entryY=1.02;entryDx=0;entryDy=0;entryPerimeter=0;" edge="1" parent="WIyWlLk6GJQsqaUBKTNV-1" source="kPMzsbJADHHdvd4n1n2J-27" target="kPMzsbJADHHdvd4n1n2J-31">
          <mxGeometry relative="1" as="geometry" />
        </mxCell>
        <mxCell id="kPMzsbJADHHdvd4n1n2J-27" value="takes user&#39;s given location and searches for weather on google" style="shape=hexagon;perimeter=hexagonPerimeter2;whiteSpace=wrap;html=1;fixedSize=1;" vertex="1" parent="WIyWlLk6GJQsqaUBKTNV-1">
          <mxGeometry x="160" y="690" width="140" height="110" as="geometry" />
        </mxCell>
        <mxCell id="kPMzsbJADHHdvd4n1n2J-28" value="" style="endArrow=classic;html=1;exitX=0.5;exitY=1;exitDx=0;exitDy=0;entryX=0.5;entryY=0;entryDx=0;entryDy=0;" edge="1" parent="WIyWlLk6GJQsqaUBKTNV-1" source="WIyWlLk6GJQsqaUBKTNV-6" target="kPMzsbJADHHdvd4n1n2J-27">
          <mxGeometry width="50" height="50" relative="1" as="geometry">
            <mxPoint x="390" y="410" as="sourcePoint" />
            <mxPoint x="440" y="360" as="targetPoint" />
            <Array as="points">
              <mxPoint x="240" y="346" />
              <mxPoint x="230" y="346" />
            </Array>
          </mxGeometry>
        </mxCell>
        <mxCell id="kPMzsbJADHHdvd4n1n2J-29" value="Search class" style="ellipse;whiteSpace=wrap;html=1;" vertex="1" parent="WIyWlLk6GJQsqaUBKTNV-1">
          <mxGeometry y="680" width="140" height="40" as="geometry" />
        </mxCell>
        <mxCell id="kPMzsbJADHHdvd4n1n2J-41" style="edgeStyle=orthogonalEdgeStyle;rounded=0;orthogonalLoop=1;jettySize=auto;html=1;entryX=0.5;entryY=1;entryDx=0;entryDy=0;" edge="1" parent="WIyWlLk6GJQsqaUBKTNV-1" source="kPMzsbJADHHdvd4n1n2J-30" target="kPMzsbJADHHdvd4n1n2J-40">
          <mxGeometry relative="1" as="geometry">
            <Array as="points">
              <mxPoint x="640" y="435" />
            </Array>
          </mxGeometry>
        </mxCell>
        <mxCell id="kPMzsbJADHHdvd4n1n2J-30" value="takes info from Scraper class and saves rain chances" style="shape=trapezoid;perimeter=trapezoidPerimeter;whiteSpace=wrap;html=1;fixedSize=1;" vertex="1" parent="WIyWlLk6GJQsqaUBKTNV-1">
          <mxGeometry x="460" y="380" width="166" height="110" as="geometry" />
        </mxCell>
        <mxCell id="kPMzsbJADHHdvd4n1n2J-31" value="scrapes the url from the Search class for info on rain chances" style="shape=trapezoid;perimeter=trapezoidPerimeter;whiteSpace=wrap;html=1;fixedSize=1;" vertex="1" parent="WIyWlLk6GJQsqaUBKTNV-1">
          <mxGeometry x="280" y="540" width="150" height="100" as="geometry" />
        </mxCell>
        <mxCell id="kPMzsbJADHHdvd4n1n2J-34" value="" style="endArrow=classic;html=1;exitX=1;exitY=0.5;exitDx=0;exitDy=0;entryX=0.5;entryY=1;entryDx=0;entryDy=0;" edge="1" parent="WIyWlLk6GJQsqaUBKTNV-1" source="kPMzsbJADHHdvd4n1n2J-31" target="kPMzsbJADHHdvd4n1n2J-30">
          <mxGeometry width="50" height="50" relative="1" as="geometry">
            <mxPoint x="390" y="560" as="sourcePoint" />
            <mxPoint x="550" y="590" as="targetPoint" />
            <Array as="points">
              <mxPoint x="543" y="590" />
            </Array>
          </mxGeometry>
        </mxCell>
        <mxCell id="kPMzsbJADHHdvd4n1n2J-46" style="edgeStyle=orthogonalEdgeStyle;rounded=0;orthogonalLoop=1;jettySize=auto;html=1;entryX=0.5;entryY=1;entryDx=0;entryDy=0;" edge="1" parent="WIyWlLk6GJQsqaUBKTNV-1" source="kPMzsbJADHHdvd4n1n2J-36" target="kPMzsbJADHHdvd4n1n2J-42">
          <mxGeometry relative="1" as="geometry" />
        </mxCell>
        <mxCell id="kPMzsbJADHHdvd4n1n2J-36" value="asks user if they want to look up another location or if they want to exit the app" style="rhombus;whiteSpace=wrap;html=1;" vertex="1" parent="WIyWlLk6GJQsqaUBKTNV-1">
          <mxGeometry x="800" y="228.75" width="180" height="110" as="geometry" />
        </mxCell>
        <mxCell id="kPMzsbJADHHdvd4n1n2J-37" value="user inputs location" style="rounded=1;whiteSpace=wrap;html=1;" vertex="1" parent="WIyWlLk6GJQsqaUBKTNV-1">
          <mxGeometry x="390" y="60" width="120" height="60" as="geometry" />
        </mxCell>
        <mxCell id="kPMzsbJADHHdvd4n1n2J-45" style="edgeStyle=orthogonalEdgeStyle;rounded=0;orthogonalLoop=1;jettySize=auto;html=1;entryX=0;entryY=0.5;entryDx=0;entryDy=0;" edge="1" parent="WIyWlLk6GJQsqaUBKTNV-1" source="kPMzsbJADHHdvd4n1n2J-40" target="kPMzsbJADHHdvd4n1n2J-36">
          <mxGeometry relative="1" as="geometry" />
        </mxCell>
        <mxCell id="kPMzsbJADHHdvd4n1n2J-40" value="gives user the rain chances for their location" style="rhombus;whiteSpace=wrap;html=1;" vertex="1" parent="WIyWlLk6GJQsqaUBKTNV-1">
          <mxGeometry x="560" y="231.25" width="160" height="107.5" as="geometry" />
        </mxCell>
        <mxCell id="kPMzsbJADHHdvd4n1n2J-49" style="edgeStyle=orthogonalEdgeStyle;rounded=0;orthogonalLoop=1;jettySize=auto;html=1;entryX=0.5;entryY=0;entryDx=0;entryDy=0;" edge="1" parent="WIyWlLk6GJQsqaUBKTNV-1" source="kPMzsbJADHHdvd4n1n2J-42" target="kPMzsbJADHHdvd4n1n2J-47">
          <mxGeometry relative="1" as="geometry" />
        </mxCell>
        <mxCell id="kPMzsbJADHHdvd4n1n2J-50" style="edgeStyle=orthogonalEdgeStyle;rounded=0;orthogonalLoop=1;jettySize=auto;html=1;" edge="1" parent="WIyWlLk6GJQsqaUBKTNV-1" source="kPMzsbJADHHdvd4n1n2J-42" target="kPMzsbJADHHdvd4n1n2J-48">
          <mxGeometry relative="1" as="geometry" />
        </mxCell>
        <mxCell id="kPMzsbJADHHdvd4n1n2J-42" value="user inputs Y/N&amp;nbsp;" style="rounded=1;whiteSpace=wrap;html=1;" vertex="1" parent="WIyWlLk6GJQsqaUBKTNV-1">
          <mxGeometry x="830" y="50" width="120" height="60" as="geometry" />
        </mxCell>
        <mxCell id="kPMzsbJADHHdvd4n1n2J-47" value="reruns the program if the user says Y" style="rhombus;whiteSpace=wrap;html=1;" vertex="1" parent="WIyWlLk6GJQsqaUBKTNV-1">
          <mxGeometry x="1030" y="243.75" width="150" height="80" as="geometry" />
        </mxCell>
        <mxCell id="kPMzsbJADHHdvd4n1n2J-48" value="thanks user and exits app if N" style="rounded=1;whiteSpace=wrap;html=1;" vertex="1" parent="WIyWlLk6GJQsqaUBKTNV-1">
          <mxGeometry x="1250" y="253.75" width="120" height="60" as="geometry" />
        </mxCell>
      </root>
    </mxGraphModel>
  </diagram>
</mxfile>
